<?xml version="1.0" standalone="no"?>
<!DOCTYPE svg PUBLIC "-//W3C//DTD SVG 20010904//EN"
 "http://www.w3.org/TR/2001/REC-SVG-20010904/DTD/svg10.dtd">
<svg fill="#3283d9" version="1.0" xmlns="http://www.w3.org/2000/svg"
 width="2112.000000pt" height="2016.000000pt" viewBox="0 0 2112.000000 2016.000000"
 preserveAspectRatio="xMidYMid meet">

<g transform="translate(0.000000,2016.000000) scale(0.100000,-0.100000)"
stroke="none">
<path d="M10306 19701 c-4 -6 -4 -31 -1 -55 7 -43 8 -45 56 -56 60 -15 96 -41
104 -78 11 -50 -34 -911 -50 -948 -15 -36 -50 -58 -108 -69 -30 -6 -37 -12
-37 -30 0 -12 -3 -37 -6 -54 l-6 -31 86 0 c48 0 118 5 156 11 58 10 79 9 127
-4 32 -9 95 -19 141 -23 l82 -7 0 56 0 55 -37 7 c-20 3 -49 19 -65 35 l-28 28
0 139 0 139 43 57 c23 31 44 56 47 57 7 0 23 -44 122 -335 44 -132 84 -244 88
-248 4 -5 41 1 81 12 67 19 78 19 121 6 26 -7 79 -17 117 -21 l71 -7 0 60 c0
59 -1 61 -30 66 -16 4 -46 21 -65 39 -31 28 -53 77 -160 352 -68 176 -121 324
-118 330 19 33 241 301 270 326 23 21 44 30 68 30 l35 0 0 66 c0 64 -1 66 -22
61 -13 -3 -63 -9 -113 -12 -73 -5 -106 -3 -174 14 -47 11 -86 19 -87 18 -1 -1
-4 -27 -8 -57 -6 -54 -6 -55 24 -72 19 -11 30 -25 30 -39 0 -25 -6 -33 -185
-258 -107 -135 -130 -160 -133 -140 -1 13 1 104 6 201 9 202 16 221 90 246
l42 14 0 55 0 56 -78 -7 c-43 -3 -101 -12 -129 -19 -40 -11 -56 -11 -75 -1
-55 28 -280 55 -292 35z"/>
<path d="M9880 19679 c-13 -6 -39 -21 -56 -34 l-32 -25 -57 26 c-140 65 -322
30 -431 -82 -89 -92 -134 -209 -155 -403 -35 -325 60 -657 225 -781 79 -59
127 -75 231 -75 110 0 172 20 235 74 l45 39 45 -23 c48 -24 127 -39 152 -30
14 6 13 12 -8 50 -27 47 -49 140 -59 254 -6 60 -12 79 -35 104 -25 28 -34 32
-96 35 -60 3 -73 1 -98 -19 -47 -37 -57 -74 -45 -174 11 -104 -2 -144 -57
-170 -81 -38 -152 26 -183 167 -22 97 -63 585 -59 704 3 109 5 124 28 157 45
66 123 84 185 43 20 -14 22 -19 14 -53 -29 -126 15 -210 121 -229 51 -10 120
11 154 48 28 30 28 33 22 112 -3 45 -9 109 -12 143 -4 44 -2 75 9 107 l16 46
-37 -1 c-20 0 -48 -5 -62 -10z"/>
<path d="M11705 19593 c-3 -21 -9 -48 -12 -59 -4 -18 2 -24 29 -33 19 -6 50
-24 68 -40 29 -24 35 -35 34 -67 -2 -68 -148 -831 -170 -893 -19 -49 -56 -71
-122 -71 -38 0 -38 -1 -51 -51 -7 -27 -12 -52 -10 -53 13 -11 196 -25 247 -20
57 6 68 4 125 -25 58 -29 171 -61 181 -50 3 2 8 27 11 55 7 50 7 51 -29 72
-44 26 -57 58 -48 112 6 36 34 70 212 265 113 122 206 218 208 211 3 -13 -94
-507 -109 -554 -12 -36 -36 -53 -89 -62 -33 -5 -35 -8 -43 -58 -5 -30 -6 -56
-3 -59 12 -12 95 -22 184 -23 72 0 101 -4 131 -20 43 -22 229 -75 236 -68 9 9
24 103 17 109 -4 4 -24 12 -44 18 -51 17 -88 63 -88 109 0 20 11 96 25 167 48
254 85 452 109 599 16 94 31 155 41 165 10 10 41 18 88 21 l72 5 11 53 c7 28
9 54 5 56 -20 12 -162 27 -233 25 -77 -2 -89 0 -163 34 -44 19 -96 39 -116 42
l-37 7 -7 -53 c-6 -45 -5 -54 11 -66 49 -34 64 -56 64 -92 -1 -20 -6 -46 -13
-57 -11 -19 -257 -291 -375 -414 -38 -39 -43 -42 -38 -20 2 14 23 129 46 255
22 127 45 247 51 268 11 42 43 68 97 76 35 6 37 8 48 63 l11 56 -44 7 c-24 3
-87 5 -141 4 -88 -1 -101 1 -142 24 -36 21 -188 67 -221 67 -4 0 -10 -17 -14
-37z"/>
<path d="M8652 19529 c-45 -15 -108 -42 -139 -60 -52 -30 -64 -33 -128 -31
-60 2 -171 -11 -182 -21 -2 -2 2 -29 8 -60 l12 -57 42 0 c66 0 77 -20 120
-210 21 -91 38 -169 39 -174 1 -9 -240 -74 -280 -75 -19 -1 -24 13 -52 137
-54 239 -54 247 2 281 l33 21 -9 52 c-5 29 -11 54 -13 56 -10 10 -135 -36
-178 -66 -47 -33 -52 -34 -112 -27 -59 6 -216 -9 -241 -24 -8 -4 -7 -21 4 -58
l15 -53 53 0 c65 0 99 -15 113 -49 11 -26 153 -629 194 -818 20 -97 21 -103 5
-137 -12 -23 -32 -43 -60 -57 -24 -12 -45 -23 -47 -25 -2 -1 2 -26 9 -54 10
-42 15 -50 30 -45 10 3 51 15 90 26 75 20 144 51 155 69 3 5 45 10 93 10 82 1
167 11 178 23 3 2 2 27 -2 55 l-6 50 -45 7 c-27 4 -55 16 -69 30 -25 25 -24
22 -81 272 l-40 173 34 9 c83 23 264 64 267 60 8 -9 88 -368 93 -416 5 -47 3
-54 -22 -77 -15 -14 -34 -26 -41 -26 -17 0 -17 -8 -3 -66 8 -31 16 -44 29 -44
34 0 155 42 194 67 35 23 49 25 116 24 81 -2 220 24 220 40 0 6 -5 30 -11 55
l-11 44 -62 0 c-39 0 -70 6 -84 15 -29 21 -57 116 -138 460 -35 154 -77 330
-91 392 -25 106 -25 113 -9 138 9 14 39 38 67 53 l50 27 -6 50 c-3 28 -9 53
-13 56 -4 4 -44 -6 -90 -22z"/>
<path d="M13766 19394 c-12 -32 -6 -96 14 -134 24 -46 70 -84 129 -105 115
-40 254 10 268 96 5 35 3 37 -25 44 -22 4 -43 0 -73 -15 -83 -43 -191 -6 -220
75 -9 23 -22 38 -42 45 -39 13 -44 13 -51 -6z"/>
<path d="M13295 19249 c-9 -28 -15 -52 -14 -53 2 -2 25 -17 50 -34 26 -18 52
-45 60 -63 12 -31 10 -43 -45 -198 -32 -92 -98 -278 -145 -416 -48 -137 -95
-266 -105 -287 -22 -47 -60 -63 -130 -54 l-53 6 -21 -51 c-16 -36 -18 -51 -9
-54 89 -33 146 -47 218 -55 77 -8 92 -13 133 -44 48 -36 127 -76 159 -79 14
-1 24 11 38 48 10 28 19 52 19 55 0 3 -14 13 -30 22 -17 9 -35 28 -41 42 -16
35 12 107 54 139 18 14 124 100 236 191 112 92 205 165 208 163 2 -2 -4 -21
-13 -42 -8 -21 -42 -113 -73 -204 -89 -253 -121 -330 -141 -341 -10 -6 -37
-10 -60 -10 -37 0 -42 -3 -54 -32 -32 -77 -33 -74 41 -96 37 -12 99 -24 136
-28 50 -5 76 -13 96 -29 36 -31 206 -115 232 -115 6 0 39 89 39 107 0 1 -19
15 -42 30 -57 35 -67 50 -68 97 0 46 282 892 306 916 11 11 37 15 91 15 l76 0
19 44 c10 24 15 48 11 51 -23 21 -194 60 -261 60 -24 0 -55 13 -101 44 -73 49
-139 79 -156 72 -7 -2 -18 -25 -25 -51 -13 -46 -13 -46 20 -80 30 -31 32 -38
27 -77 -4 -33 -15 -51 -44 -78 -47 -42 -435 -364 -445 -368 -4 -2 34 120 84
270 105 311 117 332 190 326 l43 -3 19 53 c10 29 17 55 14 57 -12 13 -131 35
-186 35 -58 0 -67 3 -115 40 -47 35 -194 110 -217 110 -5 0 -16 -23 -25 -51z"/>
<path d="M7179 19132 c-24 -16 -52 -41 -62 -55 -16 -24 -24 -27 -75 -27 -133
-1 -317 -68 -404 -148 -38 -36 -52 -41 -123 -52 -90 -14 -201 -46 -210 -61 -4
-5 1 -29 10 -53 l17 -44 72 5 c66 5 74 4 98 -18 15 -14 41 -63 61 -114 20 -49
70 -178 112 -285 128 -326 175 -459 175 -501 0 -34 -7 -46 -46 -84 l-46 -45
17 -50 c9 -27 19 -50 22 -50 19 0 145 70 199 111 59 44 70 49 118 49 67 0 189
31 257 65 29 15 77 50 107 79 l54 51 98 0 c54 0 102 3 106 7 4 4 -9 25 -29 47
-49 55 -66 90 -82 177 -23 119 -48 150 -132 168 -74 16 -173 -42 -194 -114
-16 -52 2 -116 48 -170 44 -51 39 -78 -22 -120 -82 -56 -153 -53 -184 8 -14
28 -109 256 -158 378 -2 7 54 33 136 64 l140 52 -21 52 c-11 28 -23 59 -25 69
-3 9 -8 17 -12 17 -3 0 -61 -23 -129 -50 -68 -28 -129 -50 -137 -50 -8 0 -34
52 -66 133 -78 198 -81 212 -65 252 24 56 157 111 205 86 18 -10 21 -21 21
-72 0 -71 19 -112 63 -139 87 -53 231 11 244 108 5 34 -2 57 -43 144 -38 81
-48 114 -49 155 0 30 -5 53 -11 53 -5 0 -30 -13 -55 -28z"/>
<path d="M5801 18525 c-130 -29 -276 -119 -349 -216 -27 -35 -44 -48 -63 -48
-63 -2 -259 -78 -259 -102 0 -5 10 -28 23 -50 15 -26 27 -37 37 -33 8 3 36 10
62 16 84 20 92 12 208 -205 57 -106 154 -284 215 -397 62 -113 118 -221 124
-241 15 -45 5 -73 -43 -118 -33 -32 -34 -35 -21 -60 37 -70 35 -70 118 -18 42
26 95 69 119 96 43 48 44 49 115 53 58 3 85 11 154 45 212 106 297 229 287
418 -5 100 -37 172 -106 243 -71 73 -138 102 -234 102 l-77 0 28 43 c63 94 72
203 26 305 -30 67 -94 134 -149 157 -51 22 -144 26 -215 10z m24 -206 c20 -18
54 -69 80 -121 72 -144 60 -199 -55 -262 -28 -15 -57 -25 -64 -23 -15 6 -173
286 -182 324 -13 51 64 112 143 113 33 0 50 -7 78 -31z m272 -484 c54 -38 183
-272 183 -333 0 -73 -60 -132 -136 -132 -55 0 -84 33 -174 195 -40 72 -83 149
-97 173 l-24 43 73 34 c80 38 140 44 175 20z"/>
<path d="M15337 18385 l-27 -55 23 -11 c47 -25 100 -74 113 -106 12 -28 12
-39 -1 -78 -29 -83 -464 -769 -508 -800 -26 -18 -68 -20 -85 -3 -7 7 -12 24
-12 39 0 21 10 34 42 56 71 47 110 125 94 188 -10 38 -63 92 -103 106 -47 15
-123 7 -157 -17 -15 -11 -45 -57 -71 -110 -32 -66 -56 -102 -91 -133 -26 -22
-51 -41 -55 -41 -20 0 -7 -21 24 -37 19 -10 56 -17 92 -17 57 -1 60 -3 80 -35
65 -107 148 -163 256 -169 144 -9 202 54 491 534 80 133 158 260 174 283 48
73 106 88 184 49 51 -26 90 -78 90 -119 0 -19 -29 -74 -82 -158 -46 -72 -146
-232 -223 -357 -77 -125 -152 -247 -167 -271 -41 -64 -86 -74 -181 -38 -10 4
-23 -8 -41 -42 -26 -45 -26 -48 -9 -61 39 -29 173 -90 211 -97 32 -5 49 -17
81 -55 35 -41 187 -160 205 -160 3 0 19 21 35 47 l30 47 -44 47 c-46 50 -61
84 -51 122 9 38 459 764 493 795 30 28 82 29 142 2 24 -11 44 -20 46 -20 9 0
56 84 52 94 -8 21 -164 95 -228 108 -55 11 -64 17 -90 54 -84 122 -278 244
-389 244 -29 0 -45 6 -58 21 -55 69 -80 93 -135 132 -34 24 -76 51 -93 60
l-30 16 -27 -54z"/>
<path d="M4580 17788 c-207 -65 -328 -255 -300 -471 24 -188 150 -418 325
-593 192 -191 420 -254 602 -164 144 71 233 202 241 355 11 203 -118 471 -333
690 -179 183 -351 242 -535 183z m90 -169 c63 -29 175 -149 312 -335 150 -205
220 -317 242 -389 32 -99 6 -170 -70 -195 -43 -14 -96 0 -152 41 -99 72 -403
475 -495 654 -53 104 -37 188 45 228 43 21 64 21 118 -4z"/>
<path d="M16640 17540 l-31 -40 25 -33 c38 -50 50 -91 35 -119 -12 -22 -153
-191 -433 -518 -219 -256 -210 -250 -301 -206 l-54 27 -35 -38 c-20 -21 -36
-41 -36 -44 0 -13 158 -119 205 -137 44 -17 54 -27 81 -78 43 -81 94 -136 176
-194 198 -139 396 -128 549 31 115 119 155 260 109 381 -38 103 -93 166 -238
278 l-32 25 56 70 c30 39 85 103 120 143 62 68 68 72 107 72 27 0 60 -11 94
-29 l51 -28 31 42 c17 24 31 47 31 52 0 13 -172 122 -220 138 -37 13 -51 25
-75 67 -27 45 -158 178 -176 178 -4 0 -21 -18 -39 -40z m-29 -816 c97 -71 110
-122 58 -213 -17 -30 -70 -94 -118 -142 -98 -99 -145 -122 -201 -99 -46 19
-80 65 -80 109 0 41 13 63 80 138 26 28 82 94 124 147 42 53 80 96 83 96 3 0
27 -16 54 -36z"/>
<path d="M8435 17354 c-214 -30 -357 -73 -519 -157 -187 -95 -310 -185 -641
-467 -317 -270 -467 -378 -840 -605 -229 -139 -381 -253 -514 -385 -225 -224
-364 -458 -432 -727 -40 -159 -53 -269 -45 -398 21 -376 179 -683 522 -1016
283 -273 649 -509 1359 -877 121 -62 209 -111 195 -108 -82 16 -278 49 -425
70 -443 65 -837 91 -1129 75 -472 -25 -782 -122 -1059 -330 -475 -357 -663
-939 -505 -1564 29 -116 92 -287 218 -586 144 -342 194 -495 270 -822 74 -326
109 -450 161 -583 104 -267 237 -464 419 -622 213 -185 451 -304 695 -349 122
-23 369 -23 490 0 336 64 741 289 1190 661 166 137 292 254 559 516 l229 225
-40 -75 c-247 -457 -422 -846 -538 -1195 -109 -329 -148 -550 -148 -845 -1
-262 31 -415 123 -605 65 -133 118 -204 249 -336 183 -182 349 -286 582 -363
267 -89 524 -105 979 -62 85 8 210 18 278 22 l122 7 0 -1869 c0 -1091 -4
-1864 -9 -1859 -15 16 -211 306 -281 415 l-66 102 18 101 c25 140 34 377 19
507 -51 451 -206 865 -476 1270 -159 238 -295 402 -539 646 -351 350 -659 594
-1085 858 -68 42 -133 82 -143 87 -20 11 -20 7 -15 -273 4 -227 10 -321 31
-476 51 -377 106 -661 181 -929 264 -937 755 -1586 1391 -1837 87 -34 309 -98
384 -110 34 -6 44 -19 170 -207 189 -281 233 -349 229 -354 -8 -8 -382 36
-556 65 -195 33 -462 96 -658 155 -297 90 -779 307 -1100 496 -349 204 -751
494 -993 714 l-62 57 22 27 c13 16 61 75 108 132 117 143 258 356 323 491 149
303 216 652 189 980 -29 352 -98 605 -354 1298 -136 369 -170 485 -233 794
-25 120 -46 221 -49 223 -2 2 -66 -49 -143 -114 -208 -178 -215 -184 -289
-204 -108 -30 -266 -42 -380 -29 -251 28 -485 118 -824 318 -74 44 -136 79
-137 78 -2 -1 -12 -58 -24 -127 -65 -385 -208 -583 -524 -730 -98 -45 -232
-76 -540 -123 -126 -20 -248 -40 -270 -44 l-40 -7 -8 -65 c-14 -125 -68 -446
-99 -585 -38 -174 -62 -243 -115 -321 -154 -226 -414 -373 -751 -425 -45 -7
-82 -15 -82 -19 0 -4 26 -44 59 -91 246 -354 355 -648 355 -954 0 -136 -22
-261 -60 -340 -13 -27 -83 -124 -155 -213 -72 -90 -129 -165 -127 -167 2 -2
57 -13 123 -25 253 -45 482 -115 925 -283 479 -181 792 -265 1124 -302 317
-36 601 -8 896 87 274 88 500 221 793 466 53 45 103 82 110 82 8 0 24 -12 38
-26 41 -45 406 -334 549 -436 787 -558 1556 -889 2380 -1023 904 -147 1854
-70 2651 216 636 227 1268 588 1844 1053 82 67 174 144 205 173 l56 52 135
-111 c160 -131 366 -271 492 -334 261 -132 536 -200 847 -211 414 -14 819 74
1460 319 412 158 656 232 915 278 66 12 121 23 123 25 1 1 -56 76 -128 166
-72 90 -140 181 -151 201 -10 21 -28 75 -39 120 -83 349 21 735 315 1164 86
125 91 113 -60 139 -252 44 -454 149 -625 325 -83 85 -123 160 -160 302 -41
159 -105 482 -126 637 l-17 131 -31 4 c-17 3 -137 21 -266 41 -366 56 -446 76
-575 139 -60 30 -140 77 -177 105 -162 123 -268 319 -313 576 -9 55 -20 114
-23 131 l-7 32 -125 -75 c-276 -164 -528 -270 -735 -308 -125 -24 -357 -16
-470 14 -94 26 -105 33 -267 173 -67 58 -135 115 -149 126 l-25 21 -43 -201
c-60 -281 -111 -461 -198 -698 -279 -759 -358 -1029 -394 -1350 -17 -148 -6
-437 20 -561 80 -375 207 -624 511 -1001 60 -76 110 -140 110 -142 0 -7 -230
-201 -350 -294 -515 -401 -1188 -767 -1739 -946 -293 -95 -590 -163 -891 -205
-162 -22 -390 -44 -396 -38 -4 4 100 161 281 425 54 79 98 133 110 136 249 55
376 97 540 178 202 101 345 208 515 384 331 344 585 825 744 1414 80 292 151
672 181 961 24 233 41 699 26 699 -20 0 -459 -292 -616 -410 -640 -481 -1096
-994 -1370 -1542 -130 -259 -224 -555 -261 -815 -24 -175 -22 -424 6 -589 l22
-132 -139 -203 c-185 -271 -205 -299 -215 -299 -4 0 -8 838 -8 1861 l0 1862
103 -7 c56 -4 209 -16 340 -27 388 -31 616 -23 827 31 489 125 888 488 1015
926 45 155 58 268 52 474 -9 334 -84 646 -262 1096 -97 244 -350 766 -452 932
-9 15 58 -45 148 -134 387 -379 593 -563 818 -733 354 -267 688 -440 956 -495
262 -53 547 -34 770 53 253 98 534 319 683 538 156 230 236 441 343 910 83
368 110 451 281 868 130 318 197 515 235 692 24 115 27 148 27 328 0 169 -3
215 -22 297 -94 424 -341 752 -716 949 -267 141 -528 197 -962 206 -403 9
-793 -27 -1328 -123 -76 -14 -141 -23 -143 -20 -3 2 33 22 79 43 135 64 613
320 748 401 497 298 801 555 1022 863 108 150 188 342 224 534 25 139 16 395
-21 535 -82 314 -215 542 -447 766 -136 131 -280 235 -573 414 -308 188 -474
306 -680 485 -466 404 -657 533 -933 629 -174 60 -243 71 -462 71 -279 -1
-393 -26 -620 -140 -137 -69 -243 -148 -360 -271 -377 -396 -585 -964 -767
-2096 -21 -131 -40 -238 -43 -238 -3 0 -23 114 -44 253 -100 673 -248 1229
-421 1583 -179 365 -423 633 -705 774 -202 101 -325 130 -570 135 -91 2 -178
1 -195 -1z m335 -259 c167 -25 277 -66 410 -152 111 -72 277 -239 359 -363
270 -405 456 -1067 575 -2045 50 -410 94 -904 116 -1310 6 -110 13 -210 16
-222 7 -34 56 -54 130 -55 78 0 111 18 118 64 3 18 8 110 11 203 25 750 189
1951 340 2496 260 940 647 1369 1255 1396 354 15 657 -111 1039 -431 60 -50
187 -157 282 -237 200 -169 369 -291 589 -426 362 -224 492 -317 633 -452 224
-216 365 -500 398 -803 26 -233 -60 -512 -224 -730 -206 -274 -516 -522 -992
-795 -540 -309 -967 -505 -1995 -915 -151 -60 -278 -115 -282 -121 -25 -39 12
-168 60 -210 19 -18 27 -16 288 57 615 171 1054 269 1584 356 772 125 1299
144 1664 59 283 -67 478 -169 652 -343 195 -195 295 -410 325 -697 13 -128 3
-253 -37 -439 -37 -174 -68 -262 -242 -675 -135 -324 -188 -493 -266 -850
-102 -470 -228 -753 -418 -947 -89 -90 -252 -210 -351 -258 -270 -130 -570
-143 -885 -39 -497 165 -1279 833 -2107 1800 -150 176 -397 474 -517 624 -77
97 -98 106 -163 75 -47 -23 -105 -94 -105 -129 0 -8 71 -123 159 -255 183
-279 248 -384 556 -906 66 -111 267 -483 344 -638 193 -385 348 -774 416
-1042 99 -390 91 -774 -20 -1016 -99 -216 -315 -426 -560 -545 -257 -125 -514
-152 -990 -104 -397 39 -679 41 -1085 4 -440 -40 -591 -36 -810 18 -215 52
-413 165 -576 327 -214 215 -291 399 -301 721 -12 395 85 772 346 1348 246
545 640 1239 1063 1875 70 106 128 202 128 213 0 48 -50 108 -114 134 -47 20
-78 14 -100 -20 -24 -36 -541 -655 -677 -810 -401 -456 -817 -868 -1169 -1156
-318 -261 -620 -446 -854 -524 -155 -52 -266 -68 -426 -62 -267 10 -470 93
-699 286 -242 202 -384 477 -491 951 -101 447 -158 629 -310 985 -167 392
-210 522 -245 735 -40 252 4 530 117 740 246 459 695 673 1408 673 239 0 374
-10 719 -54 652 -82 1532 -267 2118 -445 137 -41 149 -39 188 40 30 61 34 135
8 158 -10 8 -52 27 -93 43 -162 61 -923 367 -1065 428 -622 268 -1255 612
-1596 868 -205 155 -388 330 -504 484 -60 79 -147 250 -178 351 -88 278 -43
581 130 879 144 249 307 397 728 660 435 272 591 387 960 710 324 283 584 419
895 468 61 10 233 6 320 -8z m-3377 -10223 c213 -82 385 -113 612 -111 83 0
151 -2 153 -5 2 -5 -62 -141 -72 -153 0 -1 -53 11 -116 27 -208 50 -346 63
-600 57 -137 -4 -271 -13 -342 -24 -65 -10 -118 -17 -118 -16 0 1 17 29 37 60
40 63 105 205 122 270 l11 40 106 -53 c58 -29 151 -71 207 -92z m10337 -72
c12 -25 38 -69 57 -99 19 -29 33 -55 31 -57 -2 -1 -21 1 -43 6 -98 22 -334 42
-495 42 -198 0 -345 -17 -525 -61 -66 -16 -121 -29 -121 -28 -7 9 -74 148 -74
154 0 5 68 7 150 5 265 -5 526 57 805 191 l130 63 31 -85 c17 -47 41 -106 54
-131z m-9181 -2 c33 -131 91 -304 188 -568 272 -737 337 -997 337 -1335 -1
-315 -71 -561 -240 -845 -155 -262 -455 -606 -690 -792 -256 -203 -552 -347
-844 -410 -141 -30 -485 -32 -655 -5 -321 53 -586 132 -1125 335 -146 55 -318
116 -382 137 -65 20 -118 40 -118 45 0 17 138 111 235 160 272 135 635 208
902 181 121 -12 355 -56 476 -90 37 -10 67 -17 67 -15 0 1 -27 53 -59 116 -74
141 -143 308 -172 418 -17 64 -23 111 -23 190 1 132 10 178 93 485 38 138 77
292 87 344 21 106 18 103 129 121 39 6 185 40 325 75 287 71 410 90 520 81
148 -12 358 -81 569 -187 75 -37 137 -66 138 -65 2 2 -21 102 -52 222 -70 278
-79 349 -72 549 11 318 104 580 304 858 19 26 38 47 42 47 4 0 13 -24 20 -52z
m7679 12 c98 -124 182 -306 247 -529 76 -266 97 -435 88 -714 l-6 -185 26 -26
c39 -39 122 -36 268 9 130 41 256 65 342 65 90 0 247 -26 392 -65 196 -53 364
-93 421 -101 28 -3 57 -10 63 -14 7 -4 23 -57 36 -117 13 -61 46 -189 73 -284
74 -256 90 -325 102 -431 22 -192 -15 -337 -161 -636 -49 -100 -89 -184 -89
-186 0 -2 39 8 88 21 148 39 382 82 492 89 248 16 577 -52 828 -171 102 -48
214 -119 250 -158 l23 -25 -133 -42 c-73 -23 -266 -92 -428 -152 -376 -141
-580 -208 -783 -257 -264 -65 -352 -76 -607 -75 -252 0 -334 12 -539 80 -317
106 -577 277 -866 568 -533 536 -751 1032 -696 1581 29 287 88 498 321 1145
71 196 148 419 171 498 24 78 45 142 48 141 3 0 16 -13 29 -29z m1327 -371
c131 -15 363 -62 670 -134 257 -60 470 -105 580 -120 l50 -7 -37 -19 c-76 -39
-217 -79 -316 -90 -87 -9 -125 -8 -289 12 -209 24 -409 28 -523 10 -302 -49
-579 -175 -802 -364 l-65 -55 -6 132 c-7 144 -35 325 -72 462 -13 49 -20 92
-16 97 4 4 59 20 122 36 225 57 447 69 704 40z m-9808 -12 c45 -9 99 -20 120
-26 21 -5 58 -15 81 -21 35 -9 42 -15 37 -28 -38 -93 -67 -395 -57 -575 4 -64
6 -117 4 -117 -2 0 -36 26 -75 58 -259 209 -517 325 -824 371 -105 16 -321 13
-458 -5 -172 -24 -369 -22 -467 4 -77 21 -232 81 -225 88 2 2 70 15 151 29 82
14 291 59 465 100 560 131 658 145 951 141 138 -3 244 -9 297 -19z m-1797
-403 c172 -66 344 -80 615 -49 326 37 572 7 825 -99 93 -39 264 -139 320 -187
l35 -30 -40 8 c-72 14 -315 7 -410 -11 -49 -9 -171 -39 -270 -66 -232 -63
-357 -88 -484 -96 -61 -4 -104 -12 -106 -18 -1 -6 -19 -94 -38 -196 -20 -102
-61 -272 -91 -379 -31 -107 -62 -226 -70 -265 -34 -163 -44 -334 -27 -438 4
-27 5 -48 0 -48 -13 0 -130 190 -174 283 -126 266 -155 483 -120 882 28 319
12 504 -59 684 -31 77 -31 75 -8 66 9 -5 55 -23 102 -41z m12940 30 c0 -3 -14
-44 -30 -91 -65 -183 -78 -372 -46 -672 28 -266 20 -426 -30 -619 -43 -165
-126 -341 -222 -469 l-39 -52 5 122 c5 150 -14 293 -64 474 -80 284 -105 385
-135 538 -17 88 -32 169 -35 181 -3 19 -13 22 -89 28 -116 9 -297 45 -495 99
-281 77 -314 82 -522 82 -102 0 -184 3 -182 7 10 15 172 117 243 153 283 141
533 180 901 140 285 -31 508 -11 663 59 52 25 77 31 77 20z m-13124 -137 c56
-166 67 -341 38 -613 -21 -195 -14 -449 15 -584 59 -266 167 -478 376 -738
l27 -32 -124 6 c-145 8 -295 -6 -456 -42 -63 -14 -115 -24 -117 -22 -2 2 -15
48 -29 103 -100 396 -86 724 56 1285 81 324 122 505 138 615 6 44 14 96 16
115 l6 35 15 -29 c8 -16 26 -60 39 -99z m13254 101 c0 -63 51 -307 125 -603
46 -181 93 -377 104 -435 71 -374 65 -696 -19 -1007 -12 -46 -23 -83 -24 -83
-1 0 -50 11 -110 25 -150 33 -326 49 -469 41 l-118 -7 79 103 c181 234 277
441 322 690 34 187 35 290 10 582 -23 254 -23 268 -8 379 23 162 108 411 108
315z m-8873 -525 c339 -255 707 -606 914 -873 432 -556 653 -1157 611 -1665
-6 -70 -13 -130 -16 -132 -6 -6 -23 13 -170 196 -511 637 -869 1218 -1229
1996 -104 225 -252 575 -243 575 3 0 62 -43 133 -97z m4573 82 c0 -11 -182
-430 -267 -615 -265 -574 -550 -1064 -899 -1547 -162 -224 -457 -593 -474
-593 -27 0 -24 426 4 581 57 309 208 667 410 974 152 230 257 356 491 591 226
227 351 337 584 513 123 92 151 110 151 96z m75 -167 c-37 -355 -129 -771
-248 -1123 -229 -675 -613 -1189 -1044 -1396 -83 -40 -284 -111 -291 -104 -3
2 63 89 145 192 368 462 640 865 878 1298 159 291 375 747 510 1078 26 64 50
117 52 117 2 0 1 -28 -2 -62z m-4796 -81 c218 -535 507 -1097 792 -1540 188
-293 469 -675 692 -941 31 -38 56 -71 54 -73 -2 -2 -44 10 -93 27 -445 155
-796 493 -1064 1025 -166 329 -270 646 -369 1125 -39 193 -84 510 -71 510 3 0
29 -60 59 -133z m-4778 -430 c-50 -298 -37 -640 35 -951 14 -61 26 -117 27
-125 2 -11 -82 -53 -153 -76 -14 -4 -15 6 -8 82 24 264 -77 678 -222 915 -16
26 -30 52 -30 57 0 4 19 13 42 20 59 18 193 83 258 124 30 20 57 31 58 26 2
-5 -1 -38 -7 -72z m14340 47 c60 -41 193 -105 257 -125 23 -7 42 -16 42 -21 0
-4 -22 -47 -50 -96 -130 -229 -204 -522 -204 -803 l1 -156 -76 31 c-42 16 -77
31 -79 32 -2 1 8 54 22 117 49 217 59 316 60 572 1 215 -6 312 -30 453 -4 17
-4 32 -1 32 3 0 29 -16 58 -36z"/>
<path d="M8096 16304 c-9 -8 -16 -29 -16 -46 0 -68 104 -470 192 -738 223
-684 463 -1201 876 -1890 210 -350 261 -424 295 -428 32 -4 67 21 67 48 0 9
-38 75 -83 146 -457 708 -818 1448 -1045 2145 -78 239 -156 536 -186 711 -4
21 -14 44 -22 53 -20 19 -58 19 -78 -1z"/>
<path d="M12582 16289 c-29 -11 -36 -30 -67 -181 -159 -784 -591 -1761 -1199
-2712 -42 -66 -76 -127 -76 -137 0 -10 12 -26 26 -36 23 -15 29 -15 51 -2 14
8 76 93 138 189 572 891 972 1793 1156 2605 39 172 43 251 14 270 -13 9 -28
10 -43 4z"/>
<path d="M9125 15786 c-16 -12 -18 -23 -12 -107 20 -293 126 -829 252 -1274
109 -387 254 -782 438 -1197 69 -155 74 -163 102 -166 41 -4 68 18 67 54 0 16
-26 83 -58 149 -150 318 -342 836 -444 1200 -108 381 -225 967 -246 1221 -6
73 -11 92 -30 111 -26 26 -43 29 -69 9z"/>
<path d="M11546 15787 c-13 -10 -22 -52 -41 -197 -51 -384 -90 -586 -186 -960
-105 -411 -223 -748 -443 -1264 -58 -137 -106 -257 -106 -267 0 -24 42 -52 72
-47 24 3 73 106 224 468 281 671 520 1592 561 2159 6 84 5 89 -18 104 -28 20
-40 21 -63 4z"/>
<path d="M13914 15209 c-364 -219 -903 -622 -1244 -928 -393 -355 -731 -711
-1053 -1109 -97 -120 -120 -157 -112 -181 8 -27 40 -44 65 -36 11 3 84 84 162
178 242 294 342 402 657 717 538 537 1016 914 1650 1302 49 30 61 42 61 63 0
27 -31 65 -54 65 -7 0 -67 -32 -132 -71z"/>
<path d="M6662 15258 c-18 -18 -15 -63 6 -80 9 -8 69 -46 132 -84 738 -440
1550 -1160 2192 -1940 83 -101 159 -186 169 -189 26 -9 58 11 65 40 7 29 -2
43 -137 210 -292 363 -728 816 -1089 1130 -153 133 -468 387 -610 492 -129 95
-399 275 -544 362 -117 70 -159 84 -184 59z"/>
<path d="M6831 14122 c-13 -24 -14 -62 -3 -79 4 -6 34 -21 67 -34 94 -34 366
-167 530 -259 621 -346 1085 -683 1623 -1177 61 -57 115 -103 119 -103 25 0
53 34 53 63 0 24 -11 42 -52 81 -214 206 -508 452 -792 663 -380 282 -790 530
-1245 751 -231 112 -282 128 -300 94z"/>
<path d="M13760 14097 c-152 -69 -512 -256 -675 -352 -554 -325 -989 -646
-1452 -1073 -101 -93 -123 -118 -123 -141 0 -30 27 -61 53 -61 9 0 49 30 89
68 286 264 651 560 923 749 394 273 921 577 1195 688 63 26 121 52 128 57 29
24 3 108 -34 108 -5 0 -52 -19 -104 -43z"/>
<path d="M9553 12909 c-40 -8 -59 -23 -81 -63 -13 -26 -17 -85 -23 -371 -10
-500 -14 -511 -366 -977 -123 -162 -138 -193 -123 -248 11 -40 28 -63 58 -79
9 -5 118 -43 242 -84 264 -88 365 -127 439 -170 95 -54 195 -160 376 -402 95
-126 186 -243 203 -259 38 -36 104 -46 149 -22 20 10 88 93 194 238 173 236
276 353 362 412 74 51 203 105 472 196 129 43 245 86 258 95 30 19 57 72 57
112 0 42 -22 77 -199 318 -89 121 -181 258 -205 305 -71 139 -78 185 -85 575
-7 371 -7 372 -66 411 -43 28 -94 20 -286 -49 -318 -114 -411 -137 -555 -137
-124 0 -254 30 -504 116 -259 89 -274 93 -317 83z m228 -314 c144 -49 312 -97
410 -116 197 -38 330 -22 656 80 106 34 186 54 189 49 4 -6 4 -44 0 -86 -8
-101 9 -400 30 -499 31 -155 95 -276 279 -533 57 -80 100 -148 97 -151 -4 -4
-45 -19 -92 -34 -123 -40 -303 -111 -395 -157 -107 -54 -187 -112 -266 -194
-65 -69 -241 -286 -289 -357 -14 -20 -29 -35 -35 -34 -5 2 -55 62 -110 134
-139 181 -240 296 -310 354 -87 72 -272 160 -480 228 -99 33 -179 63 -179 66
1 4 42 64 92 133 276 389 306 476 319 925 3 119 7 217 8 217 1 0 35 -11 76
-25z"/>
<path d="M9865 12406 c-33 -14 -55 -52 -55 -94 1 -109 204 -385 315 -427 38
-15 49 -16 75 -5 33 14 60 55 60 92 0 31 -49 132 -106 220 -78 121 -195 229
-246 228 -7 -1 -27 -7 -43 -14z"/>
<path d="M10775 12402 c-102 -48 -287 -322 -289 -429 -1 -47 28 -87 70 -97 62
-16 177 81 278 233 86 129 108 225 64 275 -31 35 -73 41 -123 18z"/>
<path d="M9875 11660 c-240 -51 -368 -133 -351 -225 15 -80 98 -102 249 -66
90 21 230 75 287 110 114 69 80 202 -52 200 -24 0 -83 -9 -133 -19z"/>
<path d="M10639 11652 c-27 -24 -34 -37 -33 -68 0 -58 27 -90 108 -129 183
-87 367 -126 435 -91 69 36 73 131 8 180 -77 59 -269 120 -413 133 -68 5 -72
5 -105 -25z"/>
<path d="M10335 11420 c-57 -23 -87 -102 -100 -265 -8 -87 7 -215 32 -278 27
-67 86 -94 147 -66 56 26 81 137 73 324 -7 160 -24 230 -66 267 -32 29 -51 33
-86 18z"/>
<path d="M14835 12065 c-480 -135 -1054 -229 -1635 -266 -188 -12 -817 -15
-911 -4 -50 6 -60 4 -78 -14 -24 -24 -27 -49 -7 -76 13 -18 34 -20 223 -28
570 -22 1341 38 1890 148 192 39 630 148 671 167 51 25 37 110 -17 107 -9 0
-70 -16 -136 -34z"/>
<path d="M6082 11858 c-21 -21 -15 -76 9 -89 69 -36 811 -147 1135 -168 495
-34 1142 -19 1568 35 143 18 156 24 156 68 0 61 -8 62 -238 38 -334 -36 -431
-42 -747 -49 -547 -11 -1118 39 -1646 142 -192 38 -219 41 -237 23z"/>
<path d="M8380 11314 c-514 -130 -1026 -219 -1490 -259 -448 -38 -803 -40
-1288 -8 -277 18 -279 18 -273 -59 2 -28 30 -36 171 -47 966 -78 1960 16 2990
281 107 27 201 55 208 60 20 17 14 65 -10 82 -12 9 -29 16 -38 15 -8 -1 -130
-30 -270 -65z"/>
<path d="M12090 11345 c-17 -20 -16 -63 1 -81 21 -20 364 -105 679 -169 474
-95 990 -160 1480 -186 376 -20 1133 6 1174 40 22 18 20 64 -3 85 -17 16 -30
16 -133 7 -893 -85 -1931 12 -3000 280 -178 44 -181 45 -198 24z"/>
<path d="M8450 10936 c-328 -133 -480 -201 -729 -326 -541 -270 -1030 -575
-1476 -919 -143 -110 -395 -318 -417 -343 -37 -42 -10 -108 43 -108 9 0 54 34
100 76 265 240 740 589 1089 799 517 312 915 511 1444 721 143 57 263 109 268
116 23 37 -4 88 -45 88 -12 -1 -137 -47 -277 -104z"/>
<path d="M11938 11029 c-21 -12 -25 -71 -5 -87 7 -6 84 -37 172 -70 349 -131
561 -224 907 -399 600 -303 1144 -657 1600 -1042 256 -215 248 -211 288 -171
23 23 26 49 8 72 -25 31 -345 291 -538 437 -560 423 -1246 810 -1950 1103
-129 54 -438 168 -453 168 -7 0 -20 -5 -29 -11z"/>
<path d="M9160 10877 c-44 -24 -363 -212 -450 -267 -399 -249 -845 -583 -1185
-889 -131 -117 -565 -557 -576 -583 -16 -40 9 -78 53 -78 26 0 42 12 96 73
128 141 479 484 617 602 432 369 768 610 1275 912 282 167 280 165 239 217
-23 29 -34 31 -69 13z"/>
<path d="M11487 10862 c-22 -24 -22 -55 1 -74 9 -8 73 -46 142 -83 244 -133
623 -380 910 -593 284 -211 395 -305 693 -580 144 -134 219 -210 434 -444 39
-43 64 -47 93 -18 40 40 29 60 -133 232 -297 315 -621 603 -972 866 -369 277
-1059 712 -1127 712 -14 0 -32 -8 -41 -18z"/>
<path d="M10802 10364 c-30 -20 -29 -41 14 -246 105 -511 232 -936 424 -1418
105 -265 173 -415 306 -675 185 -364 191 -373 242 -345 46 26 41 57 -32 189
-305 555 -554 1178 -717 1791 -58 218 -139 594 -139 643 0 30 -36 77 -59 77
-9 0 -27 -7 -39 -16z"/>
<path d="M9857 10348 c-8 -13 -22 -70 -32 -128 -24 -142 -132 -577 -194 -780
-182 -601 -382 -1071 -699 -1650 -40 -72 -14 -123 53 -106 54 14 367 650 539
1094 148 384 255 734 360 1187 84 361 82 350 62 380 -22 33 -70 34 -89 3z"/>
<path d="M10206 9967 c-14 -11 -23 -49 -41 -178 -129 -907 -476 -1896 -970
-2758 -58 -101 -105 -195 -105 -207 0 -29 25 -54 55 -54 33 0 55 31 185 265
327 588 597 1244 765 1860 66 240 205 935 205 1023 0 27 -33 62 -58 62 -10 0
-26 -6 -36 -13z"/>
<path d="M10528 9899 c-37 -21 -39 -42 -18 -196 49 -350 131 -794 196 -1056
159 -644 376 -1239 648 -1782 102 -203 113 -220 139 -223 33 -4 67 22 67 49 0
10 -45 108 -99 216 -418 834 -711 1812 -835 2786 -13 104 -28 192 -32 197 -16
15 -49 19 -66 9z"/>
<path d="M3756 17059 c-146 -36 -346 -218 -396 -360 -10 -29 -25 -41 -84 -72
-39 -20 -97 -60 -129 -89 l-58 -53 31 -37 c17 -21 35 -38 40 -38 5 0 26 11 46
25 40 27 92 40 123 30 25 -8 629 -643 654 -688 21 -38 15 -76 -19 -130 l-25
-38 20 -28 c45 -63 46 -63 131 26 43 44 88 99 99 122 16 29 34 47 65 62 45 21
211 153 211 167 0 5 -15 26 -34 47 -33 38 -33 38 -60 21 -65 -42 -109 -59
-137 -52 -19 4 -69 48 -142 124 -166 172 -160 147 -60 250 104 107 154 182
175 267 15 60 15 70 -1 133 -10 40 -31 88 -53 120 -47 69 -137 150 -192 175
-52 23 -149 31 -205 16z m-11 -228 c51 -23 148 -121 186 -186 49 -85 36 -145
-50 -229 l-49 -48 -128 141 c-152 166 -171 196 -154 245 12 37 30 57 75 80 39
21 71 20 120 -3z"/>
<path d="M17651 16676 l-33 -34 26 -55 c33 -67 28 -94 -28 -146 -50 -48 -590
-522 -653 -573 -61 -51 -110 -50 -168 3 -20 18 -21 18 -65 -20 l-44 -38 43
-49 c51 -58 110 -107 150 -123 21 -9 38 -30 60 -75 28 -58 104 -157 119 -156
4 1 24 16 45 35 l39 34 -17 50 c-15 45 -15 53 -1 79 9 17 26 38 40 48 13 11
77 66 142 123 66 58 126 111 135 118 15 12 28 1 114 -97 53 -60 95 -114 93
-119 -1 -5 -76 -74 -166 -155 -171 -153 -193 -165 -238 -131 -29 22 -43 18
-91 -21 l-45 -37 44 -44 c24 -24 70 -62 103 -84 46 -31 63 -50 76 -83 14 -38
68 -123 118 -186 l20 -25 39 38 39 39 -18 49 c-22 56 -24 95 -6 125 7 11 118
114 247 229 129 115 281 250 336 301 56 50 112 97 124 104 31 17 78 5 122 -30
20 -17 40 -30 45 -30 4 0 26 16 48 34 l40 35 -65 66 c-36 37 -88 80 -117 97
-44 25 -54 37 -68 76 -8 26 -38 78 -66 116 l-51 68 -43 -42 c-43 -42 -43 -44
-29 -71 32 -64 26 -72 -177 -247 l-106 -91 -97 115 c-83 97 -96 117 -85 130
17 21 218 196 249 217 31 22 84 22 121 0 29 -17 29 -17 64 17 19 19 35 38 35
42 0 17 -90 104 -137 132 -40 24 -54 41 -80 95 -35 72 -117 181 -137 181 -7 0
-27 -15 -45 -34z"/>
<path d="M2827 16202 c-8 -21 -18 -58 -22 -84 -6 -43 -10 -47 -58 -68 -55 -25
-167 -132 -217 -208 -15 -23 -36 -70 -46 -103 -16 -55 -24 -64 -79 -104 -33
-24 -87 -70 -119 -104 l-59 -60 24 -20 c53 -44 64 -46 102 -17 50 39 92 48
133 31 28 -11 536 -426 697 -569 55 -49 61 -82 25 -154 l-23 -44 40 -34 c22
-19 44 -34 48 -34 17 0 109 158 128 221 20 65 21 66 74 88 111 46 235 195 270
325 40 148 1 280 -116 391 -84 80 -153 110 -254 110 -111 0 -172 -31 -286
-144 -47 -47 -97 -101 -111 -120 l-26 -34 -98 79 c-184 149 -194 160 -194 208
0 51 29 100 79 133 44 30 49 29 69 -9 9 -17 31 -47 48 -66 26 -30 38 -36 85
-39 45 -4 60 -1 89 19 67 45 103 132 81 191 -6 15 -32 42 -58 60 -76 52 -139
114 -158 157 -23 52 -48 52 -68 2z m509 -720 c80 -52 181 -147 205 -193 36
-72 14 -140 -56 -173 -35 -17 -40 -17 -80 -1 -35 13 -225 165 -318 254 -17 17
-15 20 44 84 57 63 64 67 103 67 33 0 57 -9 102 -38z"/>
<path d="M18525 15316 c-261 -51 -575 -252 -711 -457 -68 -103 -87 -165 -82
-271 4 -74 9 -96 40 -160 91 -183 266 -278 459 -249 211 33 450 162 624 336
49 49 104 115 122 145 88 152 83 351 -14 490 -97 139 -260 200 -438 166z m310
-236 c112 -109 12 -232 -420 -515 -156 -102 -291 -172 -347 -180 -86 -13 -158
46 -158 128 0 110 83 187 490 447 208 134 270 162 343 157 49 -3 62 -8 92 -37z"/>
<path d="M2016 15162 c-37 -59 -52 -93 -72 -157 -14 -47 -35 -80 -96 -152 -43
-51 -78 -94 -78 -96 0 -2 23 -18 52 -36 l51 -32 36 25 c34 24 36 25 60 9 14
-9 92 -56 173 -105 82 -49 148 -91 148 -94 0 -15 -55 -109 -81 -138 -53 -61
-78 -59 -226 19 -189 100 -187 97 -179 161 l6 52 -43 32 c-42 31 -42 31 -59
11 -23 -29 -78 -165 -78 -193 0 -15 -16 -39 -41 -63 -46 -45 -139 -179 -139
-201 0 -7 23 -25 51 -39 l51 -26 48 45 c27 25 54 46 59 46 6 0 63 -29 128 -64
189 -102 244 -114 350 -74 87 32 165 115 234 250 l54 107 155 -90 c172 -100
206 -127 219 -176 21 -75 -43 -173 -112 -173 -31 0 -42 8 -82 55 -71 82 -147
96 -216 38 -68 -58 -89 -160 -46 -224 16 -23 49 -47 109 -77 69 -34 97 -55
143 -107 31 -36 60 -65 65 -65 15 0 31 93 25 145 l-7 52 60 37 c156 94 265
293 248 451 -8 81 -46 154 -110 212 -36 32 -165 110 -396 238 -194 108 -349
200 -358 213 -14 22 -13 75 3 143 6 23 2 29 -39 52 l-46 26 -24 -37z"/>
<path d="M4828 14495 c-60 -20 -130 -76 -253 -199 -135 -137 -199 -232 -321
-473 -85 -169 -143 -340 -253 -743 -94 -346 -143 -494 -216 -647 -87 -184
-189 -327 -346 -488 l-69 -70 -7 -170 -6 -169 33 24 c54 38 248 236 344 350
246 293 358 547 530 1200 35 135 81 292 101 350 45 131 176 399 246 505 65 97
177 216 275 291 44 34 77 67 80 81 11 43 -3 104 -31 133 -32 34 -62 41 -107
25z"/>
<path d="M15818 14474 c-36 -19 -58 -63 -58 -116 0 -38 5 -46 52 -88 209 -184
273 -264 384 -483 71 -143 86 -165 120 -184 58 -34 265 -126 270 -121 13 14
-79 246 -163 410 -101 200 -214 347 -373 486 -125 109 -172 129 -232 96z"/>
<path d="M19375 14390 c-36 -39 -107 -79 -163 -91 -71 -14 -124 -41 -151 -75
-43 -55 -15 -176 49 -209 42 -22 93 -19 177 11 73 25 75 25 111 7 49 -24 75
-74 69 -133 -4 -35 -13 -51 -44 -80 -45 -43 -176 -100 -228 -100 -72 0 -131
52 -190 170 l-35 70 -58 -27 c-31 -15 -59 -29 -61 -30 -3 -2 19 -48 47 -103
75 -145 68 -200 -32 -270 -118 -80 -249 -118 -316 -90 -67 28 -105 110 -79
171 9 23 27 38 63 55 28 13 56 24 63 24 25 0 72 52 79 86 10 52 -14 121 -56
165 -31 33 -43 39 -79 39 -53 0 -96 -18 -164 -70 -37 -27 -79 -47 -128 -61
-41 -11 -75 -22 -77 -24 -10 -10 23 -46 67 -74 55 -36 61 -45 61 -105 0 -106
68 -269 149 -358 35 -38 75 -68 119 -90 61 -30 74 -33 162 -33 126 1 191 26
271 104 68 67 99 140 99 231 l0 60 42 -30 c131 -95 337 -69 448 57 90 102 94
277 10 443 -36 72 -68 109 -131 156 l-50 37 6 62 c12 108 -9 151 -50 105z"/>
<path d="M4856 13823 c-72 -71 -174 -157 -225 -193 -51 -36 -111 -77 -132 -92
-21 -16 -46 -45 -54 -65 -19 -45 -77 -275 -71 -281 3 -2 40 15 83 39 243 133
531 359 639 502 43 58 46 65 41 111 -6 66 -47 106 -108 106 -38 0 -47 -7 -173
-127z"/>
<path d="M15605 13898 c-51 -27 -60 -84 -21 -136 30 -41 113 -114 235 -206
149 -112 256 -181 521 -336 360 -210 539 -331 665 -452 203 -194 304 -395 351
-697 l17 -112 131 -126 c152 -145 145 -148 126 46 -33 350 -123 638 -270 857
-64 96 -197 234 -305 319 -103 81 -360 249 -456 299 -202 106 -560 334 -714
456 -114 92 -131 100 -200 100 -33 0 -69 -6 -80 -12z"/>
<path d="M1269 13823 c-25 -67 -49 -172 -49 -216 0 -43 -5 -55 -41 -95 -75
-85 -152 -273 -173 -424 -10 -68 -15 -81 -43 -105 -29 -25 -93 -136 -93 -160
0 -5 24 -21 54 -35 l54 -27 11 27 c27 62 79 102 133 102 47 0 83 -12 331 -114
410 -169 489 -210 527 -271 24 -39 27 -120 5 -172 -8 -19 -15 -39 -15 -43 0
-8 399 -145 404 -139 11 13 74 209 68 212 -4 3 -58 26 -120 52 -116 48 -152
77 -152 121 0 13 33 106 74 206 41 101 90 228 109 283 49 139 46 134 78 150
42 22 79 18 186 -20 54 -19 105 -35 115 -35 11 0 26 25 48 83 50 131 62 115
-150 207 -102 44 -188 80 -191 80 -4 0 -17 -25 -29 -55 -12 -30 -39 -74 -59
-97 l-37 -41 -84 28 c-47 16 -245 88 -440 162 -384 144 -410 158 -413 224 -1
19 2 48 6 65 8 30 6 32 -42 53 -27 11 -52 21 -56 21 -3 0 -10 -12 -16 -27z
m339 -577 c420 -155 573 -217 579 -232 6 -16 -108 -314 -120 -314 -5 0 -28 16
-50 36 -57 49 -171 102 -517 239 -162 65 -303 125 -314 134 -47 41 33 251 96
251 10 0 157 -51 326 -114z"/>
<path d="M3845 13158 c-171 -116 -272 -197 -362 -291 -201 -211 -336 -476
-398 -781 -39 -194 -54 -393 -65 -846 -10 -455 -17 -545 -56 -740 -32 -158
-69 -270 -146 -434 -33 -72 -62 -144 -64 -161 -3 -16 13 -97 34 -180 l39 -150
48 75 c27 41 86 147 130 235 192 380 264 742 265 1325 0 217 16 559 31 680 33
274 118 505 247 676 57 75 181 202 283 289 l47 40 36 147 c37 152 41 178 29
178 -5 -1 -48 -28 -98 -62z"/>
<path d="M19916 13146 l-49 -12 -2 -57 c-2 -32 -8 -64 -14 -71 -8 -10 -66 -15
-224 -20 -116 -4 -338 -13 -492 -20 -154 -7 -296 -9 -315 -5 -32 7 -72 41 -82
69 -3 10 -104 -13 -121 -29 -4 -4 13 -49 38 -99 24 -51 52 -121 60 -155 9 -34
21 -79 26 -99 l9 -37 60 21 60 20 0 41 c0 23 4 47 8 54 10 16 250 33 261 18 8
-10 86 -225 93 -254 3 -13 -192 -141 -215 -141 -5 0 -23 15 -40 33 l-29 34
-54 -16 c-34 -10 -54 -21 -54 -31 0 -8 24 -65 54 -126 33 -69 56 -132 61 -165
12 -95 36 -189 48 -189 7 0 32 6 57 14 44 13 45 14 50 62 3 27 11 59 18 71 15
28 134 113 342 245 91 58 241 155 333 217 117 78 174 110 186 106 11 -3 29
-21 42 -41 26 -37 22 -37 113 -13 36 10 38 12 32 40 -9 49 -53 130 -105 199
-50 64 -50 66 -51 138 0 86 -26 213 -43 211 -7 -1 -34 -7 -61 -13z m-136 -331
c0 -2 -19 -15 -42 -28 -24 -14 -114 -66 -202 -116 -87 -51 -162 -89 -166 -84
-8 9 -71 195 -67 199 1 1 99 7 217 13 118 7 217 14 219 17 6 5 41 5 41 -1z"/>
<path d="M16470 13037 c0 -21 112 -381 151 -486 134 -360 243 -517 635 -921
456 -470 610 -661 715 -884 98 -211 122 -394 96 -744 -2 -21 170 -320 184
-322 3 0 15 51 27 113 64 330 53 667 -29 914 -53 160 -234 463 -382 639 -42
50 -213 231 -381 402 -168 172 -336 353 -374 404 -132 178 -218 344 -302 588
-24 69 -48 130 -54 137 -13 15 -266 163 -278 163 -4 0 -8 -2 -8 -3z"/>
<path d="M1027 12343 l-26 -96 121 -129 c101 -107 124 -127 142 -122 11 4 88
27 170 51 82 23 150 44 152 46 5 5 52 192 49 195 -2 2 -76 -15 -165 -37 l-162
-41 -123 115 c-67 63 -125 115 -127 115 -3 0 -17 -43 -31 -97z"/>
<path d="M942 12034 c-11 -38 -25 -85 -30 -105 l-10 -37 129 -128 128 -128
163 48 c90 27 168 53 174 60 11 10 56 197 50 204 -2 1 -78 -19 -170 -45 l-167
-47 -123 123 -124 124 -20 -69z"/>
<path d="M20305 12085 c-5 -2 -29 -9 -52 -15 l-43 -11 0 -48 c0 -64 -26 -96
-91 -115 -177 -53 -844 -189 -886 -181 -29 5 -61 34 -88 79 -9 15 -16 16 -65
5 -30 -7 -56 -13 -57 -14 -9 -5 36 -123 72 -192 38 -73 43 -87 34 -115 -14
-49 -11 -185 6 -256 32 -134 115 -252 212 -298 115 -54 282 -41 390 31 61 41
107 112 124 194 l11 53 51 -50 c75 -74 132 -97 237 -97 73 0 93 4 142 28 177
87 215 290 111 582 -14 39 -35 84 -47 100 -18 26 -21 44 -21 140 -1 107 -11
186 -24 184 -3 0 -10 -2 -16 -4z m-43 -476 c27 -14 48 -69 48 -123 0 -36 -6
-52 -30 -79 -39 -45 -139 -78 -233 -78 -75 0 -105 13 -134 57 -19 30 -46 145
-35 156 8 8 306 76 340 77 13 1 32 -4 44 -10z m-533 -122 c5 -13 12 -52 15
-87 11 -110 -30 -159 -168 -203 -98 -30 -198 -30 -247 1 -45 27 -69 75 -69
135 0 71 17 83 155 112 66 14 156 34 200 44 104 25 104 25 114 -2z"/>
<path d="M2879 11373 c-162 -167 -325 -437 -398 -661 -125 -381 -107 -726 74
-1392 91 -337 125 -551 125 -787 0 -118 28 -256 65 -318 13 -22 39 -55 59 -74
45 -44 56 -35 91 68 36 109 49 275 36 455 -16 205 -33 298 -118 626 -143 558
-165 683 -166 930 0 289 68 510 232 756 l61 92 -2 181 -3 182 -56 -58z"/>
<path d="M17434 11090 c5 -273 21 -412 67 -600 56 -225 167 -473 365 -810 184
-314 323 -593 378 -760 47 -144 61 -234 60 -400 -1 -178 -19 -278 -78 -425
-20 -49 -36 -98 -36 -110 0 -21 86 -335 94 -343 10 -9 132 265 177 396 109
321 110 650 2 987 -72 225 -162 411 -368 760 -321 547 -378 710 -411 1188 -5
82 -8 90 -44 136 -21 27 -77 89 -125 137 l-86 89 5 -245z"/>
<path d="M785 10859 c-190 -28 -335 -112 -393 -229 -40 -80 -55 -156 -50 -255
6 -108 41 -186 117 -259 113 -107 279 -166 535 -187 353 -30 599 65 694 269
25 52 27 68 27 182 0 112 -2 130 -24 175 -58 118 -219 231 -391 274 -143 36
-378 50 -515 30z m240 -290 c189 -16 372 -44 437 -69 36 -13 69 -34 89 -57 29
-33 31 -41 27 -91 -4 -46 -10 -60 -36 -83 -17 -15 -51 -34 -74 -41 -87 -25
-468 -5 -710 37 -125 22 -187 45 -230 86 -33 31 -38 42 -38 80 0 90 57 136
184 149 76 7 147 5 351 -11z"/>
<path d="M19785 10655 c-177 -30 -290 -78 -388 -166 -82 -72 -120 -154 -125
-268 -14 -290 161 -451 521 -480 291 -24 593 50 742 181 67 59 117 167 123
266 14 252 -127 413 -407 466 -102 20 -351 20 -466 1z m633 -289 c63 -27 92
-67 92 -126 0 -59 -32 -103 -95 -131 -136 -60 -759 -101 -887 -58 -21 7 -52
24 -69 39 -27 22 -33 34 -37 81 -4 52 -2 59 28 92 23 27 49 42 95 56 191 59
770 90 873 47z"/>
<path d="M1574 9803 c-40 -4 -42 -6 -53 -47 -6 -23 -19 -50 -29 -60 -11 -9
-73 -35 -138 -57 -139 -48 -838 -249 -864 -249 -23 0 -38 20 -46 59 l-7 32
-61 -7 c-33 -4 -63 -8 -65 -10 -8 -7 20 -137 44 -207 24 -68 24 -72 9 -136 -8
-36 -18 -101 -21 -143 -6 -76 -5 -77 19 -83 13 -4 44 -5 69 -3 42 3 44 4 50
41 12 74 -8 76 454 -47 624 -167 604 -159 625 -238 l11 -38 64 0 c36 0 65 3
65 8 0 4 -9 52 -19 107 -18 88 -19 112 -9 207 7 59 9 110 6 113 -3 4 -32 3
-64 -2 -56 -8 -58 -9 -65 -42 -4 -18 -15 -42 -26 -52 -18 -19 -21 -19 -128 11
-61 17 -118 33 -127 36 -16 5 -18 21 -18 160 0 85 2 154 4 154 1 0 56 14 120
31 132 34 138 33 158 -32 l11 -39 63 0 64 0 -6 63 c-4 34 -12 97 -19 140 -9
52 -11 98 -5 140 4 34 11 92 14 130 7 75 16 69 -80 60z m-474 -649 c0 -89 -3
-115 -12 -111 -7 2 -106 26 -220 53 -115 27 -208 51 -208 54 0 4 403 115 433
119 4 1 7 -51 7 -115z"/>
<path d="M19017 9545 c-4 -43 -7 -95 -7 -116 0 -45 -4 -44 150 -59 112 -12
146 -26 156 -65 3 -13 -1 -133 -10 -267 -9 -134 -13 -271 -10 -305 6 -59 5
-63 -22 -91 -29 -28 -32 -29 -168 -35 -77 -4 -141 -9 -144 -11 -2 -3 -6 -52
-9 -109 l-6 -105 49 -6 c90 -12 368 -35 372 -31 2 2 8 38 13 81 9 84 27 120
66 135 17 6 157 2 447 -16 231 -14 439 -27 462 -30 55 -8 90 -45 104 -113 l12
-52 59 0 59 0 0 34 c0 18 -7 73 -15 121 -15 86 -15 89 10 189 35 140 48 288
33 379 -16 102 -15 134 11 202 13 33 25 84 28 113 l6 52 -67 0 c-65 0 -66 0
-66 -27 0 -45 -38 -110 -74 -127 -43 -20 -58 -20 -349 4 -357 30 -523 56 -598
96 -42 21 -69 83 -69 162 l0 62 -118 0 c-66 0 -159 3 -209 6 l-90 7 -6 -78z
m487 -360 c102 -43 306 -73 636 -94 244 -16 291 -21 311 -32 39 -21 47 -144
13 -226 -10 -26 -19 -33 -41 -33 -52 0 -968 52 -972 56 -4 3 10 344 14 344 1
0 19 -7 39 -15z"/>
<path d="M17882 9324 c-75 -284 -105 -488 -105 -724 -1 -266 25 -425 143 -860
127 -469 163 -657 163 -860 1 -293 -58 -482 -228 -734 -105 -157 -115 -175
-115 -228 0 -54 36 -187 57 -211 16 -16 18 -16 41 5 84 79 253 332 343 513
112 226 159 468 146 742 -12 230 -30 318 -181 886 -36 136 -77 302 -91 370
-52 259 -52 489 1 759 l27 137 -70 143 c-102 207 -94 203 -131 62z"/>
<path d="M2392 9138 c-192 -390 -240 -666 -173 -995 54 -262 151 -459 511
-1028 178 -283 261 -454 300 -622 6 -29 21 -65 33 -79 25 -32 81 -57 110 -49
79 22 107 53 107 116 0 45 -42 180 -97 308 -76 180 -173 351 -393 691 -179
277 -298 537 -342 745 -7 34 -12 123 -11 205 0 128 4 159 31 260 16 63 43 146
60 183 29 68 29 70 16 135 -20 100 -68 272 -75 272 -3 0 -38 -64 -77 -142z"/>
<path d="M1160 8394 c-349 -44 -588 -164 -675 -341 -22 -46 -29 -76 -33 -142
-13 -236 101 -394 329 -457 100 -29 351 -26 489 5 273 60 444 165 526 322 27
51 29 61 29 175 0 119 0 121 -38 196 -56 113 -140 181 -277 222 -55 17 -275
29 -350 20z m445 -284 c51 -24 75 -65 75 -124 0 -112 -117 -166 -525 -241
-207 -38 -379 -52 -438 -36 -97 28 -146 124 -101 201 38 63 128 100 373 150
338 70 540 87 616 50z"/>
<path d="M19567 8074 c-15 -86 -16 -108 -6 -121 24 -28 249 -213 260 -213 6 0
80 30 165 66 146 63 154 68 159 98 18 96 32 181 29 184 -1 2 -71 -26 -155 -62
-84 -36 -157 -66 -161 -66 -5 0 -67 50 -138 110 -71 61 -131 110 -132 110 -2
0 -12 -48 -21 -106z"/>
<path d="M19506 7723 c-9 -49 -16 -95 -16 -105 0 -9 51 -60 113 -114 61 -53
121 -106 133 -116 21 -18 23 -18 186 52 l165 71 16 102 c9 56 14 103 12 105
-2 2 -74 -26 -160 -63 -137 -58 -159 -64 -174 -52 -9 7 -67 57 -129 110 -62
53 -117 97 -121 97 -5 0 -16 -39 -25 -87z"/>
<path d="M17828 7286 c-103 -155 -233 -406 -273 -529 -27 -83 -27 -91 -16
-159 14 -87 68 -204 117 -253 19 -19 39 -35 44 -35 9 0 16 33 44 203 26 157
77 287 193 490 62 110 61 85 17 287 -14 63 -29 118 -32 121 -4 3 -46 -53 -94
-125z"/>
<path d="M2480 7327 c0 -3 -9 -49 -20 -102 -50 -243 -65 -565 -35 -737 20
-117 76 -273 142 -398 82 -154 105 -179 170 -180 64 0 134 93 118 158 -3 15
-28 63 -55 107 -134 220 -174 444 -139 776 l11 107 -87 131 c-78 117 -105 152
-105 138z"/>
<path d="M6005 2311 c-46 -21 -65 -53 -65 -112 0 -63 44 -102 140 -123 288
-64 564 -218 811 -453 37 -34 78 -67 92 -72 24 -9 337 -34 344 -28 5 6 -330
334 -405 397 -214 177 -474 312 -735 380 -131 35 -130 35 -182 11z"/>
<path d="M14494 2285 c-265 -81 -492 -209 -733 -411 -56 -47 -221 -200 -365
-339 -359 -347 -443 -418 -631 -531 -240 -146 -545 -210 -840 -175 l-70 9
-157 -90 c-87 -50 -158 -92 -158 -94 0 -7 79 -25 200 -46 100 -18 166 -22 335
-22 313 -1 458 30 710 154 234 116 398 248 841 680 140 138 299 283 353 323
105 80 283 190 378 235 61 29 223 84 301 103 88 21 134 102 102 179 -28 69
-102 75 -266 25z"/>
<path d="M5900 2004 c-43 -27 -65 -65 -65 -114 0 -55 34 -108 144 -223 212
-222 486 -358 839 -417 206 -34 308 -41 792 -50 506 -10 615 -18 796 -65 123
-32 300 -102 420 -165 l91 -48 139 24 c76 14 157 29 178 35 l40 11 -159 94
c-252 148 -467 239 -688 288 -220 50 -298 56 -777 66 -250 5 -511 14 -580 20
-144 13 -331 48 -452 86 -217 68 -426 217 -551 391 -60 82 -110 102 -167 67z"/>
<path d="M14704 1977 c-22 -24 -59 -69 -83 -101 -48 -62 -142 -142 -235 -201
-142 -90 -311 -151 -517 -185 l-66 -12 -129 -123 c-71 -67 -127 -125 -124
-128 3 -3 70 -1 150 4 350 22 614 101 840 252 95 64 278 245 319 317 48 86 40
150 -26 194 -55 38 -83 34 -129 -17z"/>
<path d="M12905 1450 c-395 -16 -669 -76 -976 -214 -63 -29 -225 -116 -360
-193 -538 -310 -821 -426 -1105 -453 -170 -16 -319 7 -540 82 l-121 41 -167
-43 c-91 -24 -166 -46 -166 -50 0 -11 290 -147 384 -180 49 -17 146 -42 215
-57 106 -22 152 -27 296 -27 184 -1 252 8 435 56 210 55 391 138 790 365 344
195 363 206 478 257 217 96 414 143 695 166 70 5 138 10 150 10 15 0 66 41
147 115 69 64 127 120 128 125 2 6 -18 9 -45 8 -26 0 -133 -4 -238 -8z"/>
<path d="M7607 1120 l-168 -5 48 -46 c197 -190 426 -331 662 -409 271 -90 546
-101 918 -39 68 11 284 60 481 109 521 128 719 157 973 139 122 -8 298 -39
369 -64 38 -13 40 -13 192 61 171 84 168 76 39 124 -260 96 -597 142 -874 121
-233 -18 -346 -40 -827 -164 -118 -30 -300 -70 -405 -88 -164 -28 -214 -33
-360 -33 -305 0 -522 65 -775 233 -47 31 -89 58 -95 61 -5 3 -86 3 -178 0z"/>
</g>
</svg>
